<?xml version="1.0" standalone="no"?>
<!DOCTYPE svg PUBLIC "-//W3C//DTD SVG 20010904//EN"
 "http://www.w3.org/TR/2001/REC-SVG-20010904/DTD/svg10.dtd">
<svg version="1.0" xmlns="http://www.w3.org/2000/svg"
 width="524.000000pt" height="520.000000pt" viewBox="0 0 524.000000 520.000000"
 preserveAspectRatio="xMidYMid meet">
<g transform="translate(0.000000,520.000000) scale(0.100000,-0.100000)"
fill="#2E3092" stroke="none">
<path d="M3 4513 c4 -651 5 -693 24 -778 112 -487 451 -827 943 -948 81 -19
118 -21 778 -24 l692 -4 0 633 c0 364 -4 671 -10 723 -31 267 -153 525 -340
714 -174 177 -385 292 -640 348 -64 14 -173 17 -763 20 l-688 4 4 -688z"/>
<path d="M3886 5189 c-161 -17 -338 -76 -476 -159 -118 -71 -179 -121 -278
-226 -190 -202 -297 -442 -322 -728 -5 -61 -10 -382 -10 -713 l0 -603 633 0
c363 0 670 5 722 10 413 47 775 303 960 678 48 98 77 183 102 292 14 65 17
170 20 768 l4 692 -638 -1 c-351 -1 -674 -5 -717 -10z"/>
<path d="M1123 2429 c-509 -39 -947 -404 -1077 -899 -41 -153 -46 -262 -46
-917 l0 -614 698 4 c610 3 706 5 767 20 254 61 442 163 611 332 179 179 285
374 341 625 14 65 17 170 20 768 l4 692 -608 -1 c-334 -1 -654 -5 -710 -10z"/>
</g>
<g transform="translate(0.000000,520.000000) scale(0.100000,-0.100000)"
fill="#F5811E" stroke="none">
<path d="M2803 1758 c5 -750 5 -756 68 -934 91 -258 254 -469 474 -616 111
-74 195 -114 317 -153 163 -52 219 -55 926 -55 l652 0 0 638 c0 380 -4 672
-10 722 -61 497 -426 913 -908 1036 -144 37 -300 44 -934 44 l-589 0 4 -682z"/>
</g>
</svg>
